<?xml version="1.0" encoding="UTF-8" standalone="no"?>
<svg width="18px" height="18px" viewBox="0 0 18 18" version="1.1" xmlns="http://www.w3.org/2000/svg" xmlns:xlink="http://www.w3.org/1999/xlink" xmlns:sketch="http://www.bohemiancoding.com/sketch/ns">
    <!-- Generator: Sketch 3.0.2 (7799) - http://www.bohemiancoding.com/sketch -->
    <title>Untitled 2</title>
    <description>Created with Sketch.</description>
    <defs>
        <path id="path-1" d="M5.5,3.5 L5.5,7.62310553"></path>
        <path id="path-2" d="M10.5,3.5 L10.5,7.62310553"></path>
    </defs>
    <g id="Page-1" stroke="none" stroke-width="1" fill="none" fill-rule="evenodd" sketch:type="MSPage">
        <g id="Group" sketch:type="MSLayerGroup" transform="translate(1.000000, 1.000000)">
            <rect id="Rectangle-10" fill="#9BA3A5" sketch:type="MSShapeGroup" x="0" y="0" width="16" height="6" rx="2"></rect>
            <rect id="Rectangle-2" stroke="#9BA3A5" sketch:type="MSShapeGroup" x="0" y="0" width="16" height="16" rx="2"></rect>
            <path d="M0.5,5.5 L15.5,5.5" id="Line" stroke="#9BA3A5" stroke-linecap="square" sketch:type="MSShapeGroup"></path>
            <g id="Line" stroke-linecap="round" stroke-linejoin="round">
                <use stroke="#FFFFFF" stroke-width="3" sketch:type="MSShapeGroup" xlink:href="#path-1"></use>
                <use stroke="#9BA3A5" stroke-width="1" xlink:href="#path-1"></use>
            </g>
            <g id="Line-2" stroke-linecap="round" stroke-linejoin="round">
                <use stroke="#FFFFFF" stroke-width="3" sketch:type="MSShapeGroup" xlink:href="#path-2"></use>
                <use stroke="#9BA3A5" stroke-width="1" xlink:href="#path-2"></use>
            </g>
            <path d="M7,9.5 C6.72385763,9.5 6.5,9.73193359 6.5,10 C6.5,10.2761424 6.73193359,10.5 7,10.5 C7.27614237,10.5 7.5,10.2680664 7.5,10 C7.5,9.72385763 7.26806641,9.5 7,9.5 Z M9,9.5 C8.72385763,9.5 8.5,9.73193359 8.5,10 C8.5,10.2761424 8.73193359,10.5 9,10.5 C9.27614237,10.5 9.5,10.2680664 9.5,10 C9.5,9.72385763 9.26806641,9.5 9,9.5 Z M11,9.5 C10.7238576,9.5 10.5,9.73193359 10.5,10 C10.5,10.2761424 10.7319336,10.5 11,10.5 C11.2761424,10.5 11.5,10.2680664 11.5,10 C11.5,9.72385763 11.2680664,9.5 11,9.5 Z M7,11.5 C6.72385763,11.5 6.5,11.7319336 6.5,12 C6.5,12.2761424 6.73193359,12.5 7,12.5 C7.27614237,12.5 7.5,12.2680664 7.5,12 C7.5,11.7238576 7.26806641,11.5 7,11.5 Z M9,11.5 C8.72385763,11.5 8.5,11.7319336 8.5,12 C8.5,12.2761424 8.73193359,12.5 9,12.5 C9.27614237,12.5 9.5,12.2680664 9.5,12 C9.5,11.7238576 9.26806641,11.5 9,11.5 Z M11,11.5 C10.7238576,11.5 10.5,11.7319336 10.5,12 C10.5,12.2761424 10.7319336,12.5 11,12.5 C11.2761424,12.5 11.5,12.2680664 11.5,12 C11.5,11.7238576 11.2680664,11.5 11,11.5 Z M5,11.5 C4.72385763,11.5 4.5,11.7319336 4.5,12 L4.5,12 C4.5,12.2761424 4.73193359,12.5 5,12.5 L5,12.5 C5.27614237,12.5 5.5,12.2680664 5.5,12 L5.5,12 C5.5,11.7238576 5.26806641,11.5 5,11.5 L5,11.5 Z" id="Rectangle-2" fill="#9BA3A5" sketch:type="MSShapeGroup"></path>
            <rect id="Rectangle-4" fill="#EC008C" sketch:type="MSShapeGroup" x="4.5" y="9.5" width="1" height="1" rx="1"></rect>
        </g>
    </g>
</svg>