<?xml version="1.0" encoding="UTF-8" standalone="no"?>
<svg width="250px" height="120px" viewBox="0 0 250 120" version="1.1" xmlns="http://www.w3.org/2000/svg" xmlns:xlink="http://www.w3.org/1999/xlink" xmlns:sketch="http://www.bohemiancoding.com/sketch/ns">
    <!-- Generator: Sketch 3.0.2 (7799) - http://www.bohemiancoding.com/sketch -->
    <title>Untitled 3</title>
    <description>Created with Sketch.</description>
    <defs></defs>
    <g id="Page-1" stroke="none" stroke-width="1" fill="none" fill-rule="evenodd" sketch:type="MSPage">
        <g id="lift-logo" sketch:type="MSLayerGroup">
            <g id="Group" sketch:type="MSShapeGroup">
                <path d="M105.166385,113.546197 C103.721284,113.034085 102.603885,112.264225 101.836993,111.261127 C101.063345,110.256338 100.574324,108.823944 100.383446,107.000282 C100.179054,105.028732 100.072635,102.469014 100.072635,99.3938028 L100.072635,1.2456338 L74.3521959,4.41633803 L74.3521959,8.45577465 L75.4636824,8.45577465 C80.9577703,8.45577465 82.9712838,9.5771831 83.6959459,10.5169014 C84.8141892,11.9738028 85.3809122,14.6923944 85.3809122,18.6025352 L85.3809122,99.3938028 C85.3809122,102.443662 85.2761824,105.004225 85.0675676,107.000282 C84.8741554,108.837465 84.4070946,110.279155 83.6765203,111.288169 C82.9493243,112.295493 81.9163851,113.035775 80.5160473,113.550423 C79.0202703,114.103099 76.96875,114.488451 74.4172297,114.693803 L73.3944257,114.774085 L73.3944257,118.941127 L74.5861486,118.855775 C77.5202703,118.642817 80.4915541,118.482254 83.4189189,118.37662 C89.1334459,118.161972 95.9079392,118.166197 102.044764,118.37662 C105.28125,118.481408 108.467905,118.642817 111.513514,118.855775 L112.702703,118.938592 L112.702703,114.767324 L111.673986,114.691268 C108.907095,114.48507 106.717905,114.100563 105.168074,113.545352" id="Shape" fill="#38A1CF"></path>
                <path d="M147.852196,114.069296 C146.431588,113.782817 145.273649,113.285915 144.404561,112.594648 C143.575169,111.938873 142.995777,110.972113 142.628378,109.631831 C142.230574,108.197746 142.030405,106.158592 142.030405,103.578592 L142.030405,55.0656338 L115.510135,56.8242254 L115.510135,61.1205634 L116.494932,61.2346479 C119.108953,61.5388732 121.179899,62.0915493 122.649493,62.8791549 C124.063345,63.6397183 125.130068,64.6132394 125.820946,65.7684507 C126.527872,66.9566197 126.958615,68.471831 127.101351,70.2752113 C127.259291,72.2197183 127.339527,74.4912676 127.339527,77.0247887 L127.339527,103.576901 C127.339527,106.14338 127.137669,108.182535 126.73902,109.635211 C126.379223,110.957746 125.798986,111.96 125.021115,112.614085 C124.205236,113.296901 123.130068,113.788732 121.825169,114.070986 C120.371622,114.379437 118.602196,114.589859 116.568412,114.691268 L115.510135,114.740282 L115.510135,118.960563 L116.719595,118.853239 C119.126689,118.642817 121.53125,118.479718 123.867399,118.374085 C126.105574,118.269296 128.508446,118.215211 131.008446,118.215211 C134.833615,118.215211 138.61402,118.269296 142.244088,118.37662 C146.022804,118.481408 149.805743,118.645352 153.483953,118.855775 L154.657095,118.92507 L154.657095,114.736056 L153.597128,114.691268 C151.345439,114.588169 149.412162,114.380282 147.851351,114.069296" id="Shape" fill="#38A1CF"></path>
                <path d="M133.085304,27.768169 C135.736486,27.768169 138.026182,26.7566197 139.891047,24.7580282 C141.735642,22.7797183 142.671453,20.436338 142.671453,17.7980282 C142.671453,15.155493 141.735642,12.8146479 139.891047,10.8338028 C138.026182,8.83943662 135.737331,7.82873239 133.085304,7.82873239 C130.431588,7.82873239 128.144426,8.84028169 126.283784,10.8338028 C124.439189,12.8095775 123.503378,15.1504225 123.503378,17.7980282 C123.503378,20.4430986 124.439189,22.7839437 126.28125,24.7580282 C128.143581,26.7566197 130.430743,27.768169 133.084459,27.768169" id="Shape" fill="#38A1CF"></path>
                <path d="M247.476351,101.300282 L246.646959,102.135211 C244.57348,104.220845 242.483953,105.96 240.432432,107.297746 C238.496622,108.566197 236.013514,109.209296 233.046453,109.209296 C231.690878,109.209296 230.641892,108.954085 229.932432,108.450423 C229.183277,107.918028 228.625845,107.224225 228.225507,106.326761 C227.793919,105.364225 227.503378,104.258873 227.356419,103.035211 C227.202703,101.743944 227.125,100.407887 227.125,99.0650704 L227.125,60.5873239 L249.021959,60.5873239 L249.021959,55.2185915 L227.125,55.2185915 L227.125,30.7478873 L222.983953,30.7478873 L222.723818,31.5016901 C221.779561,34.2473239 220.685811,37.1526761 219.469595,40.1332394 C218.282939,43.0377465 216.795608,45.7191549 215.048986,48.0997183 C213.384291,50.364507 210.32348,52.7273239 207.605574,53.844507 C205.141047,54.8585915 202.749155,55.1087324 199.199324,55.2185915 L183.820946,55.2185915 L183.820946,27.936338 C183.820946,26.1616901 184.005068,23.9974648 184.372466,21.4977465 C184.723818,19.0495775 185.41723,16.6909859 186.434966,14.4861972 C187.433277,12.324507 188.748311,10.4628169 190.347128,8.95605634 C191.847128,7.5371831 193.794764,6.84591549 196.298986,6.84591549 C198.008446,6.84591549 199.46875,7.1771831 200.630912,7.83042254 C201.815878,8.49971831 202.769426,9.33633803 203.464527,10.3191549 C204.184966,11.3332394 204.691723,12.3777465 204.973818,13.4256338 C205.266892,14.5039437 205.416385,15.3794366 205.416385,16.0259155 C205.416385,19.7721127 205.78125,22.068169 206.563345,23.2453521 C207.41723,24.5366197 208.857264,25.1923944 210.84375,25.1923944 C213.651182,25.1923944 215.544764,24.5974648 216.626689,23.3687324 C217.678209,22.1822535 218.186655,20.2022535 218.186655,17.315493 C218.186655,12.4597183 216.234797,8.52929577 212.387669,5.63577465 C208.63598,2.81830986 204.028716,1.39014085 198.695946,1.39014085 C193.257601,1.39014085 188.570101,2.81577465 184.769426,5.63070423 C181.038007,8.39408451 177.977196,11.8698592 175.669764,15.9566197 C173.382601,20.016338 171.702703,24.395493 170.677365,28.9791549 C169.628378,33.6447887 169.132601,36.2459155 169.132601,39.9202817 L169.132601,55.2185915 L162.547297,55.2185915 L160.907095,60.5873239 L169.132601,60.5873239 L169.132601,99.7166197 C169.132601,102.115775 169.052365,104.304507 168.896959,106.221972 C168.748311,107.980563 168.315034,109.502535 167.601351,110.742254 C166.921453,111.932958 165.898649,112.86338 164.563345,113.51493 C163.163007,114.195211 161.133446,114.591549 158.535473,114.689577 L157.464527,114.730141 L157.464527,118.932676 L158.644426,118.85662 C162.000845,118.643662 165.376689,118.483099 168.681588,118.377465 C175.311655,118.156056 183.048986,118.173803 189.711993,118.377465 C193.33277,118.482254 197.032939,118.646197 200.709459,118.85662 L201.882601,118.925915 L201.882601,114.71662 L200.798142,114.689577 C196.550676,114.589014 193.23902,114.170704 190.949324,113.452394 C188.771115,112.772113 187.144426,111.805352 186.114865,110.57662 C185.070101,109.341127 184.447635,107.897746 184.20777,106.159437 C183.950169,104.292676 183.818412,102.126761 183.818412,99.7166197 L183.818412,60.5873239 L212.432432,60.5873239 L212.432432,104.536901 C212.432432,108.470704 213.288007,111.935493 214.983953,114.837465 C216.784628,117.927887 220.173986,119.492113 225.049831,119.492113 C227.730574,119.492113 230.253378,119.064507 232.544764,118.218592 C234.818412,117.381972 236.950169,116.251268 238.883446,114.861972 C240.797297,113.483662 242.641892,111.932958 244.369088,110.247887 C246.055743,108.59662 247.816723,106.958028 249.601351,105.376056 L250.445946,104.629014 L247.472128,101.301127" id="Shape" fill="#38A1CF"></path>
                <path d="M25.0439189,0.365915493 L39.46875,0.365915493 L63.5109797,54.4487324 L46.7077703,54.4487324 L32.4028716,19.9740845 L17.125,54.4487324 L0.230574324,54.4487324 L25.0439189,0.365915493" id="Shape" fill="#D7197D"></path>
            </g>
        </g>
    </g>
</svg>